<?xml version="1.0" encoding="UTF-8" standalone="no"?>
<!-- Created with Inkscape (http://www.inkscape.org/) -->

<svg
   width="122.36444mm"
   height="80.199738mm"
   viewBox="0 0 122.36444 80.199738"
   version="1.1"
   id="svg1"
   inkscape:version="1.3.2 (091e20e, 2023-11-25, custom)"
   sodipodi:docname="buynest2.svg"
   xmlns:inkscape="http://www.inkscape.org/namespaces/inkscape"
   xmlns:sodipodi="http://sodipodi.sourceforge.net/DTD/sodipodi-0.dtd"
   xmlns="http://www.w3.org/2000/svg"
   xmlns:svg="http://www.w3.org/2000/svg">
  <sodipodi:namedview
     id="namedview1"
     pagecolor="#505050"
     bordercolor="#eeeeee"
     borderopacity="1"
     inkscape:showpageshadow="0"
     inkscape:pageopacity="0"
     inkscape:pagecheckerboard="0"
     inkscape:deskcolor="#505050"
     inkscape:document-units="mm"
     inkscape:zoom="1.3843855"
     inkscape:cx="346.72423"
     inkscape:cy="477.10699"
     inkscape:window-width="1920"
     inkscape:window-height="991"
     inkscape:window-x="-9"
     inkscape:window-y="-9"
     inkscape:window-maximized="1"
     inkscape:current-layer="layer1"
     inkscape:export-bgcolor="#ffffff00" />
  <defs
     id="defs1" />
  <g
     inkscape:label="Layer 1"
     inkscape:groupmode="layer"
     id="layer1"
     transform="translate(-48.713731,-80.031881)">
    <path
       d="m 73.7279,89.840779 c 0,1.438672 -0.322461,2.761589 -0.967383,3.96875 -0.644922,1.190625 -1.711524,2.182813 -3.199805,2.976563 v 0.09922 c 0.826823,0.281119 1.579232,0.644921 2.257227,1.091406 0.694531,0.429948 1.281575,0.950846 1.761132,1.562695 0.496094,0.595317 0.876433,1.273307 1.141016,2.033987 0.28112,0.76067 0.42168,1.6123 0.42168,2.55488 0,0.81029 -0.132292,1.67845 -0.396875,2.60449 -0.248047,0.92604 -0.694532,1.82728 -1.339453,2.70371 -0.644922,0.8599 -1.504818,1.65365 -2.579688,2.38125 -1.07487,0.72761 -2.43086,1.30638 -4.067969,1.73633 -0.413411,0.0992 -0.868164,0.19017 -1.364257,0.27285 -0.479557,0.0827 -1.016992,0.1571 -1.612305,0.22324 -0.595313,0.0496 -1.256771,0.0909 -1.984375,0.12403 -0.727604,0.0165 -1.546159,0.0248 -2.455664,0.0248 H 49.692158 V 81.010311 h 11.534179 c 2.463933,0 4.448308,0.248047 5.953125,0.74414 1.124479,0.363803 2.10013,0.84336 2.926953,1.438672 0.826823,0.578776 1.504818,1.231966 2.033985,1.959571 0.545703,0.711067 0.942578,1.471744 1.190625,2.282031 0.264583,0.79375 0.396875,1.595768 0.396875,2.406054 z m -17.958594,9.921875 v 9.351366 h 3.96875 c 1.058333,0 1.967839,-0.0248 2.728516,-0.0744 0.760677,-0.0661 1.413867,-0.16535 1.95957,-0.29766 0.843359,-0.1819 1.546159,-0.42168 2.108398,-0.71933 0.56224,-0.31419 1.016993,-0.66146 1.364258,-1.0418 0.347265,-0.39687 0.595312,-0.82682 0.744141,-1.28985 0.148828,-0.47955 0.223242,-0.98391 0.223242,-1.51308 0,-0.92604 -0.256315,-1.73633 -0.768945,-2.43086 -0.512631,-0.69453 -1.314649,-1.21543 -2.406055,-1.5627 -0.479557,-0.14883 -1.041797,-0.256311 -1.686719,-0.322457 -0.644922,-0.06615 -1.471745,-0.09922 -2.480469,-0.09922 z m 5.481836,-5.084961 c 1.653646,0 2.885612,-0.165364 3.695898,-0.496093 0.909505,-0.380339 1.554427,-0.901237 1.934766,-1.562696 0.396875,-0.677995 0.595312,-1.438672 0.595312,-2.282031 0,-0.876432 -0.223242,-1.653645 -0.669726,-2.33164 C 66.360907,87.310702 65.60023,86.798071 64.525361,86.467342 64.078876,86.335051 63.557978,86.2441 62.962665,86.19449 62.367353,86.128343 61.631481,86.09527 60.755048,86.09527 h -4.985742 v 8.582421 z M 91.215205,114.8191 c -2.414323,0 -4.415235,-0.40514 -6.002734,-1.21543 -1.5875,-0.82682 -2.786393,-1.93476 -3.59668,-3.32383 -0.429948,-0.74414 -0.752409,-1.56269 -0.967383,-2.45566 -0.198437,-0.89297 -0.297656,-1.88516 -0.297656,-2.97656 V 90.16324 h 5.878711 v 14.06426 c 0,0.81029 0.05788,1.51309 0.173632,2.1084 0.115755,0.57877 0.289388,1.08313 0.520899,1.51308 0.396875,0.72761 0.959114,1.27331 1.686719,1.63711 0.727604,0.34727 1.595768,0.5209 2.604492,0.5209 1.058333,0 1.95957,-0.19844 2.703711,-0.59531 0.760677,-0.39687 1.331184,-1.00045 1.711523,-1.81074 0.380339,-0.77721 0.570508,-1.86035 0.570508,-3.24942 V 90.16324 h 5.878713 v 14.68438 c 0,1.9513 -0.339,3.59668 -1.01699,4.93613 -0.38034,0.76067 -0.87644,1.4552 -1.488286,2.08359 -0.595312,0.61185 -1.30638,1.14102 -2.133203,1.5875 -0.810286,0.42995 -1.736328,0.76068 -2.778125,0.99219 -1.02526,0.24805 -2.174544,0.37207 -3.447851,0.37207 z M 105.30427,90.16324 h 6.30039 l 3.59668,8.706446 c 1.35599,3.307294 2.3151,5.754684 2.87734,7.342184 h 0.0992 c 0.41341,-1.24023 1.28985,-3.5388 2.6293,-6.8957 l 6.30082,-17.562197 6.3748,0.09556 -30.88291,77.283837 -8.833402,0.10235 20.279272,-46.5789 z"
       id="text3"
       style="font-weight:bold;font-size:50.8px;line-height:4.85;font-family:Corbel;-inkscape-font-specification:'Corbel Bold';fill:#99ff55;stroke:#99ff55;stroke-width:1.95686"
       aria-label="Buy"
       sodipodi:nodetypes="sccccccsccsccccsccsccccsccscccccsscsscsccscccsccsscccsccscccsccsccsccccscccccccccccc" />
    <text
       xml:space="preserve"
       style="font-style:normal;font-variant:normal;font-weight:bold;font-stretch:normal;font-size:50.8px;line-height:4.85;font-family:Corbel;-inkscape-font-specification:'Corbel Bold';fill:#ffdd55;stroke:#ffdd55;stroke-width:1.95686"
       x="67.656372"
       y="151.36679"
       id="text4"><tspan
         sodipodi:role="line"
         id="tspan4"
         style="fill:#ffdd55;stroke:#ffdd55;stroke-width:1.95686"
         x="67.656372"
         y="151.36679">Nest</tspan></text>
  </g>
</svg>
